<svg width="85" height="71" viewBox="0 0 85 71" fill="none" xmlns="http://www.w3.org/2000/svg">
<path d="M48.23 0.5L36.18 9.3L24.14 0.5L0 18.13V45.15H25.5V39.22H5.93V21.15L24.14 7.85L31.15 12.97L24.08 18.13V45.15H48.28V18.13L41.21 12.97L48.22 7.85L66.43 21.15V39.22H46.5L48.28 45.15H72.37V18.13L48.23 0.5ZM42.35 21.15V45.15H30.02V21.15L36.18 16.65L42.34 21.15H42.35Z" fill="#FE7E00"/>
<path d="M7.76994 70.65C6.2754 70.65 4.94219 70.3358 3.77033 69.7075C2.59847 69.0791 1.67287 68.2214 0.993533 67.1345C0.331178 66.0305 0 64.7822 0 63.3896V51.3653H3.94866V63.1348C3.94866 63.8821 4.11 64.5615 4.43269 65.1729C4.77236 65.7673 5.23091 66.2343 5.80835 66.574C6.38579 66.9137 7.03965 67.0835 7.76994 67.0835C8.51721 67.0835 9.17108 66.9137 9.73153 66.574C10.309 66.2343 10.759 65.7673 11.0817 65.1729C11.4214 64.5615 11.5912 63.8821 11.5912 63.1348V51.3653H15.5399V63.3896C15.5399 64.7822 15.2002 66.0305 14.5209 67.1345C13.8585 68.2214 12.9414 69.0791 11.7696 69.7075C10.5977 70.3358 9.26449 70.65 7.76994 70.65Z" fill="#1D2A44"/>
<path d="M17.506 70.3443V51.3653H21.3273L28.4349 60.7911H26.6516L33.5554 51.3653H37.3767V70.3443H33.428V55.7216L35.0075 56.0782L27.6961 65.504H27.1866L20.13 56.0782L21.4547 55.7216V70.3443H17.506Z" fill="#1D2A44"/>
<path d="M38.1831 70.3443L44.6029 51.3653H49.8507L56.2705 70.3443H51.9652L50.6914 66.4721L47.2245 55.7103L43.7367 66.4721L42.4629 70.3443H38.1831ZM44.8321 63.0329L47.2245 55.7103L49.596 63.0329L46.6918 54.0657H47.7618L44.8321 63.0329Z" fill="#1D2A44"/>
<path d="M57.0849 70.3443V51.3653H61.0335V59.5683H68.4213V51.3653H72.37V70.3443H68.4213V63.0075H61.0335V70.3443H57.0849Z" fill="#1D2A44"/>
<path d="M77.5276 63.8581L79.2363 48.65L84.3701 47.15L81.1103 63.8581H77.5276ZM78.7048 70.65C77.4675 70.65 76.5123 69.5619 76.6726 68.335L76.7158 68.0045C76.8491 66.9839 77.7187 66.2205 78.748 66.2205C79.9854 66.2205 80.9405 67.3086 80.7802 68.5355L80.7371 68.866C80.6037 69.8866 79.7341 70.65 78.7048 70.65Z" fill="#FE7E00"/>
</svg>
