<svg width="74" height="22" viewBox="0 0 74 22" fill="none" xmlns="http://www.w3.org/2000/svg">
<path d="M6.78477 21.1411C5.47972 21.1411 4.31556 20.8668 3.29228 20.3181C2.269 19.7694 1.46076 19.0204 0.86756 18.0713C0.289187 17.1074 0 16.0173 0 14.8013V4.30157H3.448V14.5788C3.448 15.2314 3.58888 15.8246 3.87065 16.3584C4.16726 16.8775 4.56767 17.2853 5.07189 17.5819C5.57611 17.8785 6.14707 18.0268 6.78477 18.0268C7.43729 18.0268 8.00825 17.8785 8.49764 17.5819C9.00187 17.2853 9.39486 16.8775 9.67664 16.3584C9.97324 15.8246 10.1215 15.2314 10.1215 14.5788V4.30157H13.5695V14.8013C13.5695 16.0173 13.2729 17.1074 12.6797 18.0713C12.1014 19.0204 11.3005 19.7694 10.2773 20.3181C9.25398 20.8668 8.08982 21.1411 6.78477 21.1411Z" fill="#1D2A44"/>
<path d="M15.2864 20.8742V4.30157H18.6231L24.8295 12.5323H23.2724L29.3008 4.30157H32.6376V20.8742H29.1896V8.10549L30.5688 8.41693L24.1844 16.6476H23.7395L17.5776 8.41693L18.7344 8.10549V20.8742H15.2864Z" fill="#1D2A44"/>
<path d="M33.3417 20.8742L38.9475 4.30157H43.53L49.1358 20.8742H45.3764L44.2641 17.4929L41.2367 8.09568L38.1912 17.4929L37.0789 20.8742H33.3417ZM39.1477 14.4898L41.2367 8.09568L43.3076 14.4898L40.7716 6.65956H41.7059L39.1477 14.4898Z" fill="#1D2A44"/>
<path d="M49.8469 20.8742V4.30157H53.2949V11.4645H59.746V4.30157H63.194V20.8742H59.746V14.4676H53.2949V20.8742H49.8469Z" fill="#1D2A44"/>
<path d="M67.6977 15.2104L69.1897 1.9306L73.6727 0.620789L70.8261 15.2104H67.6977ZM68.7257 21.1412C67.6452 21.1412 66.8112 20.191 66.9511 19.1197L66.9888 18.831C67.1053 17.9399 67.8646 17.2733 68.7634 17.2733C69.8439 17.2733 70.6779 18.2234 70.538 19.2948L70.5003 19.5834C70.3838 20.4746 69.6245 21.1412 68.7257 21.1412Z" fill="#FE7E00"/>
</svg>
